<svg width="55" height="12" viewBox="0 0 55 12" fill="none" xmlns="http://www.w3.org/2000/svg">
<path d="M1.709 7.248V11H0.358V0.968999H3.319C3.95367 0.968999 4.50433 1.04367 4.971 1.193C5.44233 1.33767 5.832 1.54533 6.14 1.816C6.448 2.08667 6.67667 2.41333 6.826 2.796C6.98 3.17867 7.057 3.60567 7.057 4.077C7.057 4.54367 6.97533 4.97067 6.812 5.358C6.64867 5.74533 6.40833 6.079 6.091 6.359C5.77833 6.639 5.38867 6.85833 4.922 7.017C4.45533 7.171 3.921 7.248 3.319 7.248H1.709ZM1.709 6.17H3.319C3.70633 6.17 4.047 6.11867 4.341 6.016C4.63967 5.91333 4.88933 5.771 5.09 5.589C5.29067 5.40233 5.44233 5.18067 5.545 4.924C5.64767 4.66733 5.699 4.385 5.699 4.077C5.699 3.43767 5.50067 2.93833 5.104 2.579C4.712 2.21967 4.117 2.04 3.319 2.04H1.709V6.17ZM8.58059 11V3.909H9.29459C9.42993 3.909 9.52326 3.93467 9.57459 3.986C9.62593 4.03733 9.66093 4.126 9.67959 4.252L9.76359 5.358C10.0063 4.86333 10.3049 4.47833 10.6596 4.203C11.0189 3.923 11.4389 3.783 11.9196 3.783C12.1156 3.783 12.2929 3.80633 12.4516 3.853C12.6103 3.895 12.7573 3.95567 12.8926 4.035L12.7316 4.966C12.6989 5.08267 12.6266 5.141 12.5146 5.141C12.4493 5.141 12.3489 5.12 12.2136 5.078C12.0783 5.03133 11.8893 5.008 11.6466 5.008C11.2126 5.008 10.8486 5.134 10.5546 5.386C10.2653 5.638 10.0226 6.00433 9.82659 6.485V11H8.58059ZM17.0341 3.797C17.4587 3.797 17.8507 3.86933 18.2101 4.014C18.5694 4.154 18.8797 4.35933 19.1411 4.63C19.4024 4.896 19.6054 5.22733 19.7501 5.624C19.8994 6.016 19.9741 6.464 19.9741 6.968C19.9741 7.164 19.9531 7.29467 19.9111 7.36C19.8691 7.42533 19.7897 7.458 19.6731 7.458H14.9551C14.9644 7.906 15.0251 8.29567 15.1371 8.627C15.2491 8.95833 15.4031 9.236 15.5991 9.46C15.7951 9.67933 16.0284 9.845 16.2991 9.957C16.5697 10.0643 16.8731 10.118 17.2091 10.118C17.5217 10.118 17.7901 10.083 18.0141 10.013C18.2427 9.93833 18.4387 9.859 18.6021 9.775C18.7654 9.691 18.9007 9.614 19.0081 9.544C19.1201 9.46933 19.2157 9.432 19.2951 9.432C19.3977 9.432 19.4771 9.47167 19.5331 9.551L19.8831 10.006C19.7291 10.1927 19.5447 10.356 19.3301 10.496C19.1154 10.6313 18.8844 10.7433 18.6371 10.832C18.3944 10.9207 18.1424 10.986 17.8811 11.028C17.6197 11.0747 17.3607 11.098 17.1041 11.098C16.6141 11.098 16.1614 11.0163 15.7461 10.853C15.3354 10.685 14.9784 10.4423 14.6751 10.125C14.3764 9.803 14.1431 9.40633 13.9751 8.935C13.8071 8.46367 13.7231 7.92233 13.7231 7.311C13.7231 6.81633 13.7977 6.35433 13.9471 5.925C14.1011 5.49567 14.3204 5.12467 14.6051 4.812C14.8897 4.49467 15.2374 4.24733 15.6481 4.07C16.0587 3.888 16.5207 3.797 17.0341 3.797ZM17.0621 4.714C16.4601 4.714 15.9864 4.889 15.6411 5.239C15.2957 5.58433 15.0811 6.065 14.9971 6.681H18.8541C18.8541 6.39167 18.8144 6.128 18.7351 5.89C18.6557 5.64733 18.5391 5.43967 18.3851 5.267C18.2311 5.08967 18.0421 4.95433 17.8181 4.861C17.5987 4.763 17.3467 4.714 17.0621 4.714ZM21.5689 11V3.909H22.3109C22.4882 3.909 22.6002 3.99533 22.6469 4.168L22.7379 4.896C22.9992 4.574 23.2909 4.31033 23.6129 4.105C23.9395 3.89967 24.3175 3.797 24.7469 3.797C25.2275 3.797 25.6149 3.93 25.9089 4.196C26.2075 4.462 26.4222 4.82133 26.5529 5.274C26.6509 5.01733 26.7792 4.79567 26.9379 4.609C27.1012 4.42233 27.2832 4.26833 27.4839 4.147C27.6845 4.02567 27.8969 3.937 28.1209 3.881C28.3495 3.825 28.5805 3.797 28.8139 3.797C29.1872 3.797 29.5185 3.85767 29.8079 3.979C30.1019 4.09567 30.3492 4.26833 30.5499 4.497C30.7552 4.72567 30.9115 5.008 31.0189 5.344C31.1262 5.67533 31.1799 6.05567 31.1799 6.485V11H29.9339V6.485C29.9339 5.92967 29.8125 5.50967 29.5699 5.225C29.3272 4.93567 28.9749 4.791 28.5129 4.791C28.3075 4.791 28.1115 4.82833 27.9249 4.903C27.7429 4.973 27.5819 5.078 27.4419 5.218C27.3019 5.358 27.1899 5.53533 27.1059 5.75C27.0265 5.96 26.9869 6.205 26.9869 6.485V11H25.7409V6.485C25.7409 5.91567 25.6265 5.491 25.3979 5.211C25.1692 4.931 24.8355 4.791 24.3969 4.791C24.0889 4.791 23.8019 4.875 23.5359 5.043C23.2745 5.20633 23.0342 5.43033 22.8149 5.715V11H21.5689ZM34.4529 3.909V11H33.2069V3.909H34.4529ZM34.7329 1.683C34.7329 1.80433 34.7073 1.91867 34.6559 2.026C34.6093 2.12867 34.5439 2.222 34.4599 2.306C34.3806 2.38533 34.2873 2.44833 34.1799 2.495C34.0726 2.54167 33.9583 2.565 33.8369 2.565C33.7156 2.565 33.6013 2.54167 33.4939 2.495C33.3913 2.44833 33.2979 2.38533 33.2139 2.306C33.1346 2.222 33.0716 2.12867 33.0249 2.026C32.9783 1.91867 32.9549 1.80433 32.9549 1.683C32.9549 1.56167 32.9783 1.44733 33.0249 1.34C33.0716 1.228 33.1346 1.13233 33.2139 1.053C33.2979 0.969 33.3913 0.903666 33.4939 0.856999C33.6013 0.810333 33.7156 0.786999 33.8369 0.786999C33.9583 0.786999 34.0726 0.810333 34.1799 0.856999C34.2873 0.903666 34.3806 0.969 34.4599 1.053C34.5439 1.13233 34.6093 1.228 34.6559 1.34C34.7073 1.44733 34.7329 1.56167 34.7329 1.683ZM37.727 3.909V8.431C37.727 8.96767 37.8506 9.383 38.098 9.677C38.3453 9.971 38.7186 10.118 39.218 10.118C39.582 10.118 39.925 10.0317 40.247 9.859C40.569 9.68633 40.8653 9.446 41.136 9.138V3.909H42.382V11H41.64C41.4626 11 41.3506 10.9137 41.304 10.741L41.206 9.978C40.898 10.3187 40.5526 10.594 40.17 10.804C39.7873 11.0093 39.3486 11.112 38.854 11.112C38.4666 11.112 38.1236 11.049 37.825 10.923C37.531 10.7923 37.2836 10.6103 37.083 10.377C36.8823 10.1437 36.7306 9.86133 36.628 9.53C36.53 9.19867 36.481 8.83233 36.481 8.431V3.909H37.727ZM44.4283 11V3.909H45.1703C45.3476 3.909 45.4596 3.99533 45.5063 4.168L45.5973 4.896C45.8586 4.574 46.1503 4.31033 46.4723 4.105C46.7989 3.89967 47.1769 3.797 47.6063 3.797C48.0869 3.797 48.4743 3.93 48.7683 4.196C49.0669 4.462 49.2816 4.82133 49.4123 5.274C49.5103 5.01733 49.6386 4.79567 49.7973 4.609C49.9606 4.42233 50.1426 4.26833 50.3433 4.147C50.5439 4.02567 50.7563 3.937 50.9803 3.881C51.2089 3.825 51.4399 3.797 51.6733 3.797C52.0466 3.797 52.3779 3.85767 52.6673 3.979C52.9613 4.09567 53.2086 4.26833 53.4093 4.497C53.6146 4.72567 53.7709 5.008 53.8783 5.344C53.9856 5.67533 54.0393 6.05567 54.0393 6.485V11H52.7933V6.485C52.7933 5.92967 52.6719 5.50967 52.4293 5.225C52.1866 4.93567 51.8343 4.791 51.3723 4.791C51.1669 4.791 50.9709 4.82833 50.7843 4.903C50.6023 4.973 50.4413 5.078 50.3013 5.218C50.1613 5.358 50.0493 5.53533 49.9653 5.75C49.8859 5.96 49.8463 6.205 49.8463 6.485V11H48.6003V6.485C48.6003 5.91567 48.4859 5.491 48.2573 5.211C48.0286 4.931 47.6949 4.791 47.2563 4.791C46.9483 4.791 46.6613 4.875 46.3953 5.043C46.1339 5.20633 45.8936 5.43033 45.6743 5.715V11H44.4283Z" fill="white"/>
</svg>
